# generated from PmQm by Jehee Lee
:FULLY-SPECIFIED
:DEGREES
1
root -154.8723593 40.1837 -62.93828872 -176.9673285 44.1695936 -178.460813
RightUpLeg -6.09157597 1.800048578 -0.3226860646
RightLeg 12.0013298 0 0
RightFoot -7.922411981 9.317084272 -1.568268714
RightToes 2.15368e-009 -1.59028e-015 9.93923e-017
Spine -12.8135 -1.05082 1.24729
Spine1 17.204 -1.28155 -0.317462
HEad -6.40227 0.441897 1.88129
LeftShoulder1 9.93923e-017 0 1.22299e-017
LeftArm 7.45641 37.1625 -80.8097
LeftForeArm -19.747 -15.7498 -1.37596
LeftHand 0.94794 6.40755 -7.4599
RightShoulder 1.98785e-016 -4.96962e-017 1.55301e-017
RightArm 23.5312 -42.7213 86.8062
RightForeArm -45.9113 19.6827 -11.3603
RightHand 1.41984 -12.2905 -5.40287
LeftUpLeg -6.347019127 0.1432698094 3.495752169
LeftLeg 13.87025153 0 0
LeftFoot -8.595062339 -7.820128439 -0.5283880667
LeftToes -1.72801e-010 9.79356e-011 1.69352e-011
2
root -154.8509031 40.1802 -62.95948231 -176.9037252 44.00629739 -178.4220863
RightUpLeg -6.068006087 1.713651917 -0.2741379175
RightLeg 12.00728288 0 0
RightFoot -7.951597691 9.239087384 -1.586220602
RightToes 2.15368e-009 -1.59028e-015 9.93923e-017
Spine -12.6507 -1.1224 1.33833
Spine1 17.2574 -1.35497 -0.346251
HEad -6.06028 0.678623 2.0484
LeftShoulder1 9.93923e-017 0 1.22299e-017
LeftArm 7.93681 37.1072 -80.829
LeftForeArm -20.0929 -15.9924 -1.15118
LeftHand 0.938507 6.31884 -7.08018
RightShoulder 1.98785e-016 -4.96962e-017 1.55301e-017
RightArm 23.5841 -42.7293 86.8461
RightForeArm -45.5604 19.6712 -11.3739
RightHand 1.36044 -11.9446 -5.20107
LeftUpLeg -6.509761798 0.05393905702 3.548938752
LeftLeg 14.14776275 0 0
LeftFoot -8.643620995 -7.890205344 -0.4581569033
LeftToes -1.72801e-010 9.79356e-011 1.69352e-011
3
root -154.8250364 40.1758 -62.98296438 -176.8222146 44.06785736 -178.4061868
RightUpLeg -6.139415058 1.705205863 -0.2636827444
RightLeg 12.09046582 0 0
RightFoot -8.041055575 9.321494957 -1.65489972
RightToes 2.15368e-009 -1.59028e-015 9.93923e-017
Spine -12.619 -1.05616 1.55233
Spine1 17.3651 -1.22745 -0.595057
HEad -5.87375 0.883564 2.1549
LeftShoulder1 9.93923e-017 0 1.22299e-017
LeftArm 7.87931 36.9909 -80.7809
LeftForeArm -20.0966 -15.9781 -1.15466
LeftHand 0.938666 6.38087 -6.34899
RightShoulder 1.98785e-016 -4.96962e-017 1.55301e-017
RightArm 23.5756 -42.7144 86.9174
RightForeArm -45.3956 19.6606 -11.3002
RightHand 1.32966 -11.7387 -5.16179
LeftUpLeg -6.599305172 0.01486967136 3.555962247
LeftLeg 14.29637334 0 0
LeftFoot -8.708268232 -7.770021629 -0.4303321448
LeftToes -1.72801e-010 9.79356e-011 1.69352e-011
4
root -154.7859289 40.1711 -63.01663891 -176.7325456 44.16660901 -178.4052533
RightUpLeg -6.187272639 1.734045908 -0.2598188537
RightLeg 12.13864956 0 0
RightFoot -8.136256574 9.38586994 -1.673883773
RightToes 2.15368e-009 -1.59028e-015 9.93923e-017
Spine -12.7453 -0.994928 1.61975
Spine1 17.5132 -1.14991 -0.664072
HEad -5.75462 1.14114 2.06128
LeftShoulder1 9.93923e-017 0 1.22299e-017
LeftArm 8.08134 37.0383 -80.7149
LeftForeArm -20.6701 -16.1371 -1.00938
LeftHand 0.945746 6.47351 -6.2395
RightShoulder 1.98785e-016 -4.96962e-017 1.55301e-017
RightArm 23.3192 -42.6963 86.9175
RightForeArm -45.1057 19.6225 -11.0633
RightHand 1.32731 -11.7116 -5.19149
LeftUpLeg -6.600729626 0.02050500856 3.546941976
LeftLeg 14.30044496 0 0
LeftFoot -8.798022515 -7.656832944 -0.4396705339
LeftToes -1.72801e-010 9.79356e-011 1.69352e-011
5
root -154.7369517 40.1702 -63.0577351 -176.6448149 44.21138887 -178.4532291
RightUpLeg -6.201050372 1.721977983 -0.2872998894
RightLeg 12.10289617 0 0
RightFoot -8.210221483 9.425792334 -1.641032497
RightToes 2.15368e-009 -1.59028e-015 9.93923e-017
Spine -12.9507 -1.00173 1.46047
Spine1 17.6211 -1.20615 -0.46761
HEad -5.72657 1.36266 1.89428
LeftShoulder1 9.93923e-017 0 1.22299e-017
LeftArm 8.45884 37.2716 -80.6359
LeftForeArm -21.1502 -16.3908 -0.754233
LeftHand 0.944186 6.40652 -6.87149
RightShoulder 1.98785e-016 -4.96962e-017 1.55301e-017
RightArm 22.7418 -42.7613 86.847
RightForeArm -44.513 19.5677 -10.8964
RightHand 1.32361 -11.6983 -5.15296
LeftUpLeg -6.527455776 0.09092628285 3.491607645
LeftLeg 14.10986377 0 0
LeftFoot -8.829733009 -7.680930812 -0.4728537328
LeftToes -1.72801e-010 9.79356e-011 1.69352e-011
6
root -154.6883039 40.1731 -63.09600282 -176.5364066 44.26070886 -178.5496711
RightUpLeg -6.29097677 1.689539746 -0.3547756048
RightLeg 12.0864203 0 0
RightFoot -8.283214723 9.500653812 -1.623354329
RightToes 2.15368e-009 -1.59028e-015 9.93923e-017
Spine -13.1191 -1.01214 1.27179
Spine1 17.6008 -1.25027 -0.305962
HEad -5.80679 1.43746 1.83047
LeftShoulder1 9.93923e-017 0 1.22299e-017
LeftArm 7.98698 37.4743 -80.4921
LeftForeArm -20.1988 -16.1944 -0.874107
LeftHand 0.937781 6.2646 -7.53431
RightShoulder 1.98785e-016 -4.96962e-017 1.55301e-017
RightArm 22.1111 -42.97 86.7915
RightForeArm -44.1039 19.5521 -11.0671
RightHand 1.3108 -11.6396 -5.05524
LeftUpLeg -6.450289739 0.2126448702 3.382982709
LeftLeg 13.78019793 0 0
LeftFoot -8.783872418 -7.752871655 -0.5071172449
LeftToes -1.72801e-010 9.79356e-011 1.69352e-011
7
root -154.6431094 40.1738 -63.12858841 -176.4059831 44.27714319 -178.6067423
RightUpLeg -6.413129128 1.699088635 -0.3879890517
RightLeg 12.13468618 0 0
RightFoot -8.371575991 9.50810212 -1.659806805
RightToes 2.15368e-009 -1.59028e-015 9.93923e-017
Spine -13.1804 -1.03251 1.17808
Spine1 17.4902 -1.26638 -0.295141
HEad -6.00468 1.43034 1.82195
LeftShoulder1 9.93923e-017 0 1.22299e-017
LeftArm 6.51592 37.5209 -80.299
LeftForeArm -18.2774 -15.4911 -1.4324
LeftHand 0.944769 6.32655 -7.8711
RightShoulder 1.98785e-016 -4.96962e-017 1.55301e-017
RightArm 21.9692 -43.1991 86.7708
RightForeArm -44.5164 19.6074 -11.51
RightHand 1.31175 -11.6624 -5.00827
LeftUpLeg -6.413590023 0.326189736 3.318340821
LeftLeg 13.51452543 0 0
LeftFoot -8.760562489 -7.827196741 -0.5561126221
LeftToes -1.72801e-010 9.79356e-011 1.69352e-011
